<svg xmlns="http://www.w3.org/2000/svg" width="832" height="867" viewBox="0 0 832 867">
  <g fill="none" fill-rule="evenodd">
    <g transform="translate(99)">
      <path fill="#E48E66" fill-rule="nonzero" d="M312.972078,203.445617 C286.364275,195.224256 257.801312,208.151943 246.415819,233.588161 C235.030325,259.017026 244.401859,288.946312 268.260678,303.337372 C292.11215,317.721081 322.946329,312.036721 340.109098,290.093479 C357.271866,268.142884 355.360809,236.838468 335.669564,217.138084 C329.326322,210.791898 321.542436,206.092925 312.972078,203.445617 Z M311.560836,125.188253 C382.490478,124.019025 444.305843,173.281015 459.006287,242.714021 C473.706731,312.139672 437.176129,382.256566 371.869406,409.957701 C306.562685,437.658838 230.789248,415.178782 191.1348,356.335008 C151.480353,297.491235 159.065782,218.785297 209.223696,168.604104 C236.382766,141.35154 273.104475,125.776544 311.560836,125.188253 Z"/>
      <path fill="#D18162" d="M312.972078,203.445617 C313.097032,203.48974 313.214635,203.533863 313.332239,203.570631 L313.332239,125.202959 C312.744221,125.202959 312.156203,125.1809 311.560836,125.188253 C230.326183,126.504554 165.29877,193.018166 165.783885,274.30523 C166.268999,355.584938 232.090237,421.319066 313.332239,421.664686 L313.332239,308.690817 C290.715607,315.853257 266.048262,307.727492 252.112241,288.519802 C238.168871,269.312112 238.080668,243.339079 251.891735,224.035791 C265.702801,204.732504 290.311344,196.444959 312.972078,203.452973 L312.972078,203.445617 Z"/>
      <path fill="#F8EC7D" d="M616.036428,535.66071 L616.374537,606.329125 L616.315735,606.821819 L558.623844,607.513061 L551.398575,570.921382 L508.216023,556.949477 L499.579512,519.019437 L456.022096,505.371094 L449.715607,462.447937 L389.8407,402.545239 L389.105676,401.265708 C408.142751,390.022003 424.445543,374.697029 436.845368,356.386483 L616.036428,535.66071 Z"/>
      <path fill="#63316D" fill-rule="nonzero" d="M430.744684,156.625036 C402.277273,127.938513 364.210476,110.819255 323.872458,108.554334 C300.020986,44.6733227 239.705067,1.74281062 171.561159,0.139719127 C103.417253,-1.46337349 41.1608728,38.5918675 14.3325638,101.281591 C-12.4883973,163.978669 1.52847633,236.691395 49.7238808,284.916521 C79.1100689,314.500188 118.58076,331.884177 160.234467,333.59022 C176.948871,376.439842 210.774593,410.369505 253.560234,427.201973 C296.345877,444.041792 344.210522,442.262214 385.629021,422.289744 L433.772976,470.463396 L439.26359,507.834561 C440.21177,514.268991 444.754206,519.59302 450.957794,521.534379 L485.231879,532.270685 L491.707424,560.707184 C493.030464,566.531261 497.322993,571.230233 503.004714,573.068641 L536.712833,583.966726 L542.012342,610.79278 C543.577939,618.727351 550.5386,624.448477 558.623844,624.448477 L558.82965,624.448477 L616.521543,623.749883 C625.033099,623.654285 632.148114,617.234563 633.140394,608.770531 L633.191844,608.285192 C633.272697,607.608658 633.309448,606.92477 633.309448,606.240881 L632.971339,535.572466 C632.949288,531.10881 631.163185,526.828995 628.009939,523.674287 L458.263915,353.84948 C494.110947,289.328701 482.887157,208.850538 430.744684,156.625036 Z M283.505039,263.465973 C291.318324,268.62087 301.821792,266.466256 306.966948,258.656698 C313.273437,249.096973 318.565597,238.904838 322.762574,228.242071 C323.071282,228.536216 323.387342,228.8083 323.688703,229.117152 C336.184078,241.566852 338.550851,260.943677 329.414524,276.040685 C320.28555,291.130343 302.020247,298.020697 285.202939,292.718727 C268.385631,287.409403 257.375,271.290239 258.543686,253.68564 C259.712372,236.081043 272.759014,221.56497 290.134939,218.535275 C286.996395,226.021273 283.166928,233.205772 278.697993,239.993176 C273.552838,247.810088 275.706454,258.31843 283.512389,263.465973 L283.505039,263.465973 Z M73.6709047,72.9259808 C104.269877,42.32016 147.849344,28.5320971 190.480631,35.9666209 C233.104566,43.4011446 269.451415,71.1316943 287.893121,110.289793 C198.139561,124.702914 136.890163,208.95349 150.840883,298.822242 C121.609051,295.189548 94.4426308,281.85741 73.6782544,260.951032 C21.8738905,208.990258 21.8738905,124.886755 73.6709047,72.9259808 Z M221.189857,366.284473 C185.666235,330.737011 173.538368,278.018814 189.958765,230.506988 C206.386511,182.995164 248.481232,149.036086 298.374537,143.050228 C300.829512,156.602974 301.182322,170.45722 299.40357,184.112916 C264.813425,182.826032 234.199751,206.335597 226.504068,240.096126 C218.801036,273.86401 236.199011,308.330489 267.929919,322.170028 C299.660826,336.01692 336.742697,325.317383 356.235484,296.704396 C375.735624,268.091408 372.119314,229.646613 347.643075,205.159015 C343.063886,200.599763 337.896681,196.665569 332.273762,193.481446 C334.934541,176.921064 335.088896,160.051828 332.736825,143.447325 C377.455575,149.918522 415.706129,178.935958 434.000833,220.263377 C452.295535,261.590796 448.069157,309.426182 422.813794,346.907651 C400.895434,379.418063 365.592317,400.42004 326.57734,404.177747 C287.562362,407.928099 248.914894,394.037086 221.204559,366.299181 L221.189857,366.284473 Z M599.358775,590.077596 L572.508413,590.401156 L568.010079,567.634307 C566.819342,561.604328 562.453309,556.692101 556.609884,554.794863 L522.593057,543.793827 L516.095461,515.254377 C514.75037,509.37147 510.391689,504.650437 504.643814,502.848797 L471.229706,492.377223 L466.474112,459.984469 C465.944896,456.38119 464.269046,453.042639 461.689118,450.468867 L415.213664,403.964492 C420.674879,399.721444 425.871487,395.140132 430.759384,390.249964 C433.427515,387.573242 435.970691,384.786216 438.447717,381.955066 L599.138267,542.720198 L599.358775,590.077596 Z"/>
    </g>
    <path fill="#E48E66" d="M27.8,788 L27.8,642 L73.2,642 L73.2,712.4 L96.6,678.8 L146,678.8 L111.8,723.2 L146.6,788 L98,788 L82.2,758 L73.2,769.6 L73.2,788 L27.8,788 Z M207.2,790.6 C171.4,790.6 147.2,768 147.2,734 L147.2,733.6 C147.2,701 170.6,676.2 203.4,676.2 C242.2,676.2 260.2,703.2 260.2,736.4 C260.2,738.8 260.2,741.6 260,744 L189.8,744 C193,753.6 200.6,758.6 210.4,758.6 C218.6,758.6 225.4,754.8 232.6,747.4 L257,766.8 C246.2,780.8 230.8,790.6 207.2,790.6 Z M189.2,724 L218.8,724 C217.8,713.6 211.6,707.6 203.6,707.6 C196,707.6 190.6,714 189.2,724 Z M308.4,820.6 C292.6,820.6 278.4,816 266.2,809.2 L279.4,778.2 C287.6,782.8 295.2,785.4 299.4,785.4 C302,785.4 304.4,785 306.8,783.8 L264,678.8 L311,678.8 L330,736.4 L347.4,678.8 L393.6,678.8 L355.8,780.4 C345.2,809 333.6,820.6 308.4,820.6 Z M400.6,788 L400.6,678.8 L446,678.8 L446,700.8 C452.2,686 462.2,676.4 480.2,677.2 L480.2,725.4 L475.4,725.4 C456.2,725.4 446,736 446,760.2 L446,788 L400.6,788 Z M487.6,671 L487.6,642 L534.6,642 L534.6,671 L487.6,671 Z M488.4,788 L488.4,678.8 L533.8,678.8 L533.8,788 L488.4,788 Z M547.8,788 L547.8,678.8 L593.2,678.8 L593.2,694 C600.2,685 611.2,676.2 626.6,676.2 C649.6,676.2 664,691.4 664,716 L664,788 L618.6,788 L618.6,730.6 C618.6,721.2 613,715.8 606.2,715.8 C599.4,715.8 593.2,721.2 593.2,730.6 L593.2,788 L547.8,788 Z M735,820.4 C710.8,820.4 692,815.6 674.4,806.8 L688.4,779.4 C700.6,785.8 712.8,789.8 727.8,789.8 C744.8,789.8 753.8,781 753.8,765.8 L753.8,762.6 C747.6,769.6 737.4,777.6 722.2,777.6 C694,777.6 673.6,757.6 673.6,727.4 L673.6,727 C673.6,696.4 694.4,676.2 719.6,676.2 C735.6,676.2 745,682.2 753,690.4 L753,678.8 L798.4,678.8 L798.4,760.4 C798.4,780.6 794.2,794.4 784.2,804.4 C774.4,814.2 759.4,820.4 735,820.4 Z M735.8,744.4 C747,744.4 754,736.8 754,727.2 L754,726.8 C754,717.4 746.8,709.8 735.8,709.8 C724.6,709.8 717.6,717.6 717.6,727.2 L717.6,727.6 C717.6,737 724.8,744.4 735.8,744.4 Z"/>
    <path fill="#63316D" d="M0.0107421875,855.111328 L3.24804688,855.111328 C3.48242188,857.206055 5.51855469,858.583008 8.30175781,858.583008 C10.9677734,858.583008 12.8867188,857.206055 12.8867188,855.316406 C12.8867188,853.675781 11.7294922,852.694336 8.99023438,852.020508 L6.25097656,851.361328 C2.36914062,850.423828 0.567382812,848.607422 0.567382812,845.663086 C0.567382812,842.015625 3.74609375,839.510742 8.2578125,839.510742 C12.7255859,839.510742 15.7871094,842.015625 15.8896484,845.663086 L12.6962891,845.663086 C12.5058594,843.553711 10.7626953,842.279297 8.21386719,842.279297 C5.66503906,842.279297 3.921875,843.568359 3.921875,845.443359 C3.921875,846.9375 5.03515625,847.816406 7.75976563,848.490234 L10.0888672,849.061523 C14.4248047,850.086914 16.2265625,851.830078 16.2265625,854.920898 C16.2265625,858.875977 13.0771484,861.351562 8.06738281,861.351562 C3.37988281,861.351562 0.215820312,858.93457 0.0107421875,855.111328 Z M18.9658203,861 L18.9658203,845.091797 L22.1445312,845.091797 L22.1445312,861 L18.9658203,861 Z M20.5625,842.821289 C19.5371094,842.821289 18.7021484,842.000977 18.7021484,840.990234 C18.7021484,839.950195 19.5371094,839.15918 20.5625,839.15918 C21.5878906,839.15918 22.4228516,839.950195 22.4228516,840.990234 C22.4228516,842.000977 21.5878906,842.821289 20.5625,842.821289 Z M25.5136719,861 L25.5136719,845.091797 L28.5458984,845.091797 L28.5458984,847.787109 L28.6044922,847.787109 C29.3369141,846 31.0507812,844.916016 33.1308594,844.916016 C35.3427734,844.916016 36.9394531,846.029297 37.5839844,848.006836 L37.6572266,848.006836 C38.4921875,846.087891 40.3671875,844.916016 42.6376953,844.916016 C45.7724609,844.916016 47.8232422,846.981445 47.8232422,850.160156 L47.8232422,861 L44.6591797,861 L44.6591797,850.921875 C44.6591797,848.841797 43.53125,847.640625 41.5537109,847.640625 C39.6054688,847.640625 38.2285156,849.09082 38.2285156,851.126953 L38.2285156,861 L35.1083984,861 L35.1083984,850.658203 C35.1083984,848.8125 33.921875,847.640625 32.0615234,847.640625 C30.0986328,847.640625 28.6923828,849.164062 28.6923828,851.244141 L28.6923828,861 L25.5136719,861 Z M59.2050781,844.930664 C63.2626953,844.930664 65.9287109,848.109375 65.9287109,853.045898 C65.9287109,857.967773 63.2773438,861.161133 59.2783203,861.161133 C56.9931641,861.161133 55.1914062,860.150391 54.2392578,858.392578 L54.1806641,858.392578 L54.1806641,866.273438 L51.0019531,866.273438 L51.0019531,845.091797 L54.0634766,845.091797 L54.0634766,847.728516 L54.1367188,847.728516 C55.0302734,846.014648 56.9931641,844.930664 59.2050781,844.930664 Z M58.3994141,858.46582 C60.9775391,858.46582 62.6767578,856.341797 62.6767578,853.045898 C62.6767578,849.764648 60.9775391,847.625977 58.3994141,847.625977 C55.8798828,847.625977 54.1660156,849.808594 54.1513672,853.045898 C54.1660156,856.297852 55.8652344,858.46582 58.3994141,858.46582 Z M68.5947266,861 L68.5947266,838.910156 L71.7734375,838.910156 L71.7734375,861 L68.5947266,861 Z M81.7783203,847.479492 C79.4931641,847.479492 77.8378906,849.149414 77.6621094,851.595703 L85.7333984,851.595703 C85.6601562,849.120117 84.0927734,847.479492 81.7783203,847.479492 Z M85.71875,856.341797 L88.7509766,856.341797 C88.296875,859.198242 85.4990234,861.19043 81.9248047,861.19043 C77.3105469,861.19043 74.4394531,858.084961 74.4394531,853.104492 C74.4394531,848.124023 77.3398438,844.886719 81.7929688,844.886719 C86.1582031,844.886719 88.9121094,847.918945 88.9121094,852.738281 L88.9121094,853.851562 L77.6474609,853.851562 L77.6474609,854.041992 C77.6474609,856.795898 79.3759766,858.612305 81.9833984,858.612305 C83.8291016,858.612305 85.2792969,857.733398 85.71875,856.341797 Z M104.996094,847.479492 C102.710938,847.479492 101.055664,849.149414 100.879883,851.595703 L108.951172,851.595703 C108.87793,849.120117 107.310547,847.479492 104.996094,847.479492 Z M108.936523,856.341797 L111.96875,856.341797 C111.514648,859.198242 108.716797,861.19043 105.142578,861.19043 C100.52832,861.19043 97.6572266,858.084961 97.6572266,853.104492 C97.6572266,848.124023 100.557617,844.886719 105.010742,844.886719 C109.375977,844.886719 112.129883,847.918945 112.129883,852.738281 L112.129883,853.851562 L100.865234,853.851562 L100.865234,854.041992 C100.865234,856.795898 102.59375,858.612305 105.201172,858.612305 C107.046875,858.612305 108.49707,857.733398 108.936523,856.341797 Z M114.678711,861 L114.678711,845.091797 L117.710938,845.091797 L117.710938,847.772461 L117.769531,847.772461 C118.736328,845.897461 120.333008,844.916016 122.793945,844.916016 C126.30957,844.916016 128.316406,847.142578 128.316406,850.804688 L128.316406,861 L125.137695,861 L125.137695,851.405273 C125.137695,848.988281 124.024414,847.640625 121.695312,847.640625 C119.292969,847.640625 117.857422,849.310547 117.857422,851.81543 L117.857422,861 L114.678711,861 Z M145.088867,850.526367 L142.056641,850.526367 C141.763672,848.841797 140.445312,847.567383 138.262695,847.567383 C135.699219,847.567383 134,849.706055 134,853.045898 C134,856.473633 135.728516,858.524414 138.277344,858.524414 C140.342773,858.524414 141.705078,857.513672 142.085938,855.65332 L145.118164,855.65332 C144.751953,858.978516 142.085938,861.19043 138.262695,861.19043 C133.750977,861.19043 130.777344,858.084961 130.777344,853.045898 C130.777344,848.094727 133.736328,844.886719 138.233398,844.886719 C142.291016,844.886719 144.810547,847.464844 145.088867,850.526367 Z M147.447266,861 L147.447266,845.091797 L150.479492,845.091797 L150.479492,847.772461 L150.538086,847.772461 C151.036133,846 152.500977,844.930664 154.375977,844.930664 C154.844727,844.930664 155.240234,844.974609 155.489258,845.033203 L155.489258,848.006836 C155.225586,847.904297 154.668945,847.816406 154.039062,847.816406 C151.944336,847.816406 150.625977,849.266602 150.625977,851.507812 L150.625977,861 L147.447266,861 Z M159.12207,866.786133 C158.858398,866.786133 158.082031,866.742188 157.833008,866.698242 L157.833008,864.120117 C158.067383,864.178711 158.56543,864.193359 158.84375,864.193359 C160.352539,864.193359 161.1875,863.548828 161.729492,861.864258 L161.978516,861.043945 L156.207031,845.091797 L159.620117,845.091797 L163.707031,858.099609 L163.780273,858.099609 L167.867188,845.091797 L171.207031,845.091797 L165.245117,861.732422 C163.882812,865.555664 162.374023,866.786133 159.12207,866.786133 Z M181.34375,844.930664 C185.401367,844.930664 188.067383,848.109375 188.067383,853.045898 C188.067383,857.967773 185.416016,861.161133 181.416992,861.161133 C179.131836,861.161133 177.330078,860.150391 176.37793,858.392578 L176.319336,858.392578 L176.319336,866.273438 L173.140625,866.273438 L173.140625,845.091797 L176.202148,845.091797 L176.202148,847.728516 L176.275391,847.728516 C177.168945,846.014648 179.131836,844.930664 181.34375,844.930664 Z M180.538086,858.46582 C183.116211,858.46582 184.81543,856.341797 184.81543,853.045898 C184.81543,849.764648 183.116211,847.625977 180.538086,847.625977 C178.018555,847.625977 176.304688,849.808594 176.290039,853.045898 C176.304688,856.297852 178.003906,858.46582 180.538086,858.46582 Z M191.553711,841.517578 L194.717773,841.517578 L194.717773,845.091797 L197.764648,845.091797 L197.764648,847.59668 L194.717773,847.59668 L194.717773,856.488281 C194.717773,857.865234 195.333008,858.509766 196.666016,858.509766 C197.00293,858.509766 197.544922,858.46582 197.75,858.436523 L197.75,860.941406 C197.398438,861.029297 196.651367,861.102539 195.962891,861.102539 C192.78418,861.102539 191.553711,859.886719 191.553711,856.810547 L191.553711,847.59668 L189.356445,847.59668 L189.356445,845.091797 L191.553711,845.091797 L191.553711,841.517578 Z M200.5625,861 L200.5625,845.091797 L203.741211,845.091797 L203.741211,861 L200.5625,861 Z M202.15918,842.821289 C201.133789,842.821289 200.298828,842.000977 200.298828,840.990234 C200.298828,839.950195 201.133789,839.15918 202.15918,839.15918 C203.18457,839.15918 204.019531,839.950195 204.019531,840.990234 C204.019531,842.000977 203.18457,842.821289 202.15918,842.821289 Z M213.921875,861.19043 C209.322266,861.19043 206.392578,858.055664 206.392578,853.045898 C206.392578,848.050781 209.336914,844.886719 213.921875,844.886719 C218.506836,844.886719 221.436523,848.036133 221.436523,853.045898 C221.436523,858.055664 218.521484,861.19043 213.921875,861.19043 Z M213.921875,858.553711 C216.617188,858.553711 218.213867,856.517578 218.213867,853.045898 C218.213867,849.574219 216.617188,847.523438 213.921875,847.523438 C211.226562,847.523438 209.615234,849.588867 209.615234,853.045898 C209.615234,856.517578 211.226562,858.553711 213.921875,858.553711 Z M223.985352,861 L223.985352,845.091797 L227.017578,845.091797 L227.017578,847.772461 L227.076172,847.772461 C228.042969,845.897461 229.639648,844.916016 232.100586,844.916016 C235.616211,844.916016 237.623047,847.142578 237.623047,850.804688 L237.623047,861 L234.444336,861 L234.444336,851.405273 C234.444336,848.988281 233.331055,847.640625 231.001953,847.640625 C228.599609,847.640625 227.164062,849.310547 227.164062,851.81543 L227.164062,861 L223.985352,861 Z M250.484375,854.041992 L240.875,854.041992 L240.875,851.185547 L250.484375,851.185547 L250.484375,854.041992 Z M259.332031,858.626953 C261.69043,858.626953 263.477539,857.118164 263.477539,855.023438 L263.477539,853.77832 L259.610352,854.041992 C257.442383,854.173828 256.314453,854.979492 256.314453,856.385742 C256.314453,857.748047 257.500977,858.626953 259.332031,858.626953 Z M258.482422,861.161133 C255.303711,861.161133 253.106445,859.286133 253.106445,856.444336 C253.106445,853.661133 255.259766,852.049805 259.185547,851.800781 L263.477539,851.551758 L263.477539,850.321289 C263.477539,848.504883 262.261719,847.508789 260.137695,847.508789 C258.40918,847.508789 257.149414,848.402344 256.871094,849.779297 L253.897461,849.779297 C253.985352,846.966797 256.651367,844.886719 260.225586,844.886719 C264.107422,844.886719 266.612305,846.9375 266.612305,850.086914 L266.612305,861 L263.580078,861 L263.580078,858.348633 L263.506836,858.348633 C262.62793,860.077148 260.650391,861.161133 258.482422,861.161133 Z M270.757812,841.517578 L273.921875,841.517578 L273.921875,845.091797 L276.96875,845.091797 L276.96875,847.59668 L273.921875,847.59668 L273.921875,856.488281 C273.921875,857.865234 274.537109,858.509766 275.870117,858.509766 C276.207031,858.509766 276.749023,858.46582 276.954102,858.436523 L276.954102,860.941406 C276.602539,861.029297 275.855469,861.102539 275.166992,861.102539 C271.988281,861.102539 270.757812,859.886719 270.757812,856.810547 L270.757812,847.59668 L268.560547,847.59668 L268.560547,845.091797 L270.757812,845.091797 L270.757812,841.517578 Z M289.332031,854.041992 L279.722656,854.041992 L279.722656,851.185547 L289.332031,851.185547 L289.332031,854.041992 Z M292.657227,861 L292.657227,845.091797 L295.689453,845.091797 L295.689453,847.772461 L295.748047,847.772461 C296.246094,846 297.710938,844.930664 299.585938,844.930664 C300.054688,844.930664 300.450195,844.974609 300.699219,845.033203 L300.699219,848.006836 C300.435547,847.904297 299.878906,847.816406 299.249023,847.816406 C297.154297,847.816406 295.835938,849.266602 295.835938,851.507812 L295.835938,861 L292.657227,861 Z M309.356445,847.479492 C307.071289,847.479492 305.416016,849.149414 305.240234,851.595703 L313.311523,851.595703 C313.238281,849.120117 311.670898,847.479492 309.356445,847.479492 Z M313.296875,856.341797 L316.329102,856.341797 C315.875,859.198242 313.077148,861.19043 309.50293,861.19043 C304.888672,861.19043 302.017578,858.084961 302.017578,853.104492 C302.017578,848.124023 304.917969,844.886719 309.371094,844.886719 C313.736328,844.886719 316.490234,847.918945 316.490234,852.738281 L316.490234,853.851562 L305.225586,853.851562 L305.225586,854.041992 C305.225586,856.795898 306.954102,858.612305 309.561523,858.612305 C311.407227,858.612305 312.857422,857.733398 313.296875,856.341797 Z M318.775391,849.618164 C318.775391,846.820312 321.280273,844.901367 324.942383,844.901367 C328.428711,844.901367 330.948242,846.864258 331.021484,849.632812 L328.033203,849.632812 C327.901367,848.226562 326.685547,847.347656 324.869141,847.347656 C323.067383,847.347656 321.866211,848.182617 321.866211,849.442383 C321.866211,850.40918 322.657227,851.068359 324.341797,851.478516 L326.978516,852.108398 C330.186523,852.884766 331.373047,854.041992 331.373047,856.385742 C331.373047,859.227539 328.677734,861.19043 324.825195,861.19043 C321.119141,861.19043 318.584961,859.271484 318.350586,856.400391 L321.485352,856.400391 C321.734375,857.923828 322.964844,858.758789 324.986328,858.758789 C326.963867,858.758789 328.208984,857.938477 328.208984,856.649414 C328.208984,855.638672 327.579102,855.111328 325.90918,854.686523 L323.067383,853.983398 C320.196289,853.280273 318.775391,851.81543 318.775391,849.618164 Z M334.90332,841.517578 L338.067383,841.517578 L338.067383,845.091797 L341.114258,845.091797 L341.114258,847.59668 L338.067383,847.59668 L338.067383,856.488281 C338.067383,857.865234 338.682617,858.509766 340.015625,858.509766 C340.352539,858.509766 340.894531,858.46582 341.099609,858.436523 L341.099609,860.941406 C340.748047,861.029297 340.000977,861.102539 339.3125,861.102539 C336.133789,861.102539 334.90332,859.886719 334.90332,856.810547 L334.90332,847.59668 L332.706055,847.59668 L332.706055,845.091797 L334.90332,845.091797 L334.90332,841.517578 Z M371.597656,845.091797 L367.217773,861 L363.936523,861 L360.552734,849.017578 L360.479492,849.017578 L357.125,861 L353.858398,861 L349.463867,845.091797 L352.62793,845.091797 L355.586914,857.689453 L355.645508,857.689453 L359.014648,845.091797 L362.061523,845.091797 L365.445312,857.689453 L365.503906,857.689453 L368.462891,845.091797 L371.597656,845.091797 Z M373.72168,861 L373.72168,845.091797 L376.900391,845.091797 L376.900391,861 L373.72168,861 Z M375.318359,842.821289 C374.292969,842.821289 373.458008,842.000977 373.458008,840.990234 C373.458008,839.950195 374.292969,839.15918 375.318359,839.15918 C376.34375,839.15918 377.178711,839.950195 377.178711,840.990234 C377.178711,842.000977 376.34375,842.821289 375.318359,842.821289 Z M381.22168,841.517578 L384.385742,841.517578 L384.385742,845.091797 L387.432617,845.091797 L387.432617,847.59668 L384.385742,847.59668 L384.385742,856.488281 C384.385742,857.865234 385.000977,858.509766 386.333984,858.509766 C386.670898,858.509766 387.212891,858.46582 387.417969,858.436523 L387.417969,860.941406 C387.066406,861.029297 386.319336,861.102539 385.630859,861.102539 C382.452148,861.102539 381.22168,859.886719 381.22168,856.810547 L381.22168,847.59668 L379.024414,847.59668 L379.024414,845.091797 L381.22168,845.091797 L381.22168,841.517578 Z M390.245117,861 L390.245117,838.910156 L393.394531,838.910156 L393.394531,847.772461 L393.467773,847.772461 C394.419922,845.897461 396.060547,844.916016 398.492188,844.916016 C401.993164,844.916016 404.087891,847.245117 404.087891,850.833984 L404.087891,861 L400.90918,861 L400.90918,851.449219 C400.90918,849.076172 399.722656,847.640625 397.393555,847.640625 C394.917969,847.640625 393.423828,849.339844 393.423828,851.888672 L393.423828,861 L390.245117,861 Z M417.505859,851.961914 L424.053711,845.091797 L427.789062,845.091797 L421.138672,851.947266 L428.023438,861 L424.361328,861 L418.868164,853.880859 L417.491211,855.228516 L417.491211,861 L414.3125,861 L414.3125,838.910156 L417.491211,838.910156 L417.491211,851.961914 L417.505859,851.961914 Z M436.358398,847.479492 C434.073242,847.479492 432.417969,849.149414 432.242188,851.595703 L440.313477,851.595703 C440.240234,849.120117 438.672852,847.479492 436.358398,847.479492 Z M440.298828,856.341797 L443.331055,856.341797 C442.876953,859.198242 440.079102,861.19043 436.504883,861.19043 C431.890625,861.19043 429.019531,858.084961 429.019531,853.104492 C429.019531,848.124023 431.919922,844.886719 436.373047,844.886719 C440.738281,844.886719 443.492188,847.918945 443.492188,852.738281 L443.492188,853.851562 L432.227539,853.851562 L432.227539,854.041992 C432.227539,856.795898 433.956055,858.612305 436.563477,858.612305 C438.40918,858.612305 439.859375,857.733398 440.298828,856.341797 Z M447.637695,866.786133 C447.374023,866.786133 446.597656,866.742188 446.348633,866.698242 L446.348633,864.120117 C446.583008,864.178711 447.081055,864.193359 447.359375,864.193359 C448.868164,864.193359 449.703125,863.548828 450.245117,861.864258 L450.494141,861.043945 L444.722656,845.091797 L448.135742,845.091797 L452.222656,858.099609 L452.295898,858.099609 L456.382812,845.091797 L459.722656,845.091797 L453.760742,861.732422 C452.398438,865.555664 450.889648,866.786133 447.637695,866.786133 Z M468.570312,861 L468.570312,845.091797 L471.602539,845.091797 L471.602539,847.772461 L471.661133,847.772461 C472.15918,846 473.624023,844.930664 475.499023,844.930664 C475.967773,844.930664 476.363281,844.974609 476.612305,845.033203 L476.612305,848.006836 C476.348633,847.904297 475.791992,847.816406 475.162109,847.816406 C473.067383,847.816406 471.749023,849.266602 471.749023,851.507812 L471.749023,861 L468.570312,861 Z M485.459961,861.19043 C480.860352,861.19043 477.930664,858.055664 477.930664,853.045898 C477.930664,848.050781 480.875,844.886719 485.459961,844.886719 C490.044922,844.886719 492.974609,848.036133 492.974609,853.045898 C492.974609,858.055664 490.05957,861.19043 485.459961,861.19043 Z M485.459961,858.553711 C488.155273,858.553711 489.751953,856.517578 489.751953,853.045898 C489.751953,849.574219 488.155273,847.523438 485.459961,847.523438 C482.764648,847.523438 481.15332,849.588867 481.15332,853.045898 C481.15332,856.517578 482.764648,858.553711 485.459961,858.553711 Z M496.475586,841.517578 L499.639648,841.517578 L499.639648,845.091797 L502.686523,845.091797 L502.686523,847.59668 L499.639648,847.59668 L499.639648,856.488281 C499.639648,857.865234 500.254883,858.509766 501.587891,858.509766 C501.924805,858.509766 502.466797,858.46582 502.671875,858.436523 L502.671875,860.941406 C502.320312,861.029297 501.573242,861.102539 500.884766,861.102539 C497.706055,861.102539 496.475586,859.886719 496.475586,856.810547 L496.475586,847.59668 L494.27832,847.59668 L494.27832,845.091797 L496.475586,845.091797 L496.475586,841.517578 Z M510.889648,858.626953 C513.248047,858.626953 515.035156,857.118164 515.035156,855.023438 L515.035156,853.77832 L511.167969,854.041992 C509,854.173828 507.87207,854.979492 507.87207,856.385742 C507.87207,857.748047 509.058594,858.626953 510.889648,858.626953 Z M510.040039,861.161133 C506.861328,861.161133 504.664062,859.286133 504.664062,856.444336 C504.664062,853.661133 506.817383,852.049805 510.743164,851.800781 L515.035156,851.551758 L515.035156,850.321289 C515.035156,848.504883 513.819336,847.508789 511.695312,847.508789 C509.966797,847.508789 508.707031,848.402344 508.428711,849.779297 L505.455078,849.779297 C505.542969,846.966797 508.208984,844.886719 511.783203,844.886719 C515.665039,844.886719 518.169922,846.9375 518.169922,850.086914 L518.169922,861 L515.137695,861 L515.137695,858.348633 L515.064453,858.348633 C514.185547,860.077148 512.208008,861.161133 510.040039,861.161133 Z M522.31543,841.517578 L525.479492,841.517578 L525.479492,845.091797 L528.526367,845.091797 L528.526367,847.59668 L525.479492,847.59668 L525.479492,856.488281 C525.479492,857.865234 526.094727,858.509766 527.427734,858.509766 C527.764648,858.509766 528.306641,858.46582 528.511719,858.436523 L528.511719,860.941406 C528.160156,861.029297 527.413086,861.102539 526.724609,861.102539 C523.545898,861.102539 522.31543,859.886719 522.31543,856.810547 L522.31543,847.59668 L520.118164,847.59668 L520.118164,845.091797 L522.31543,845.091797 L522.31543,841.517578 Z M531.324219,861 L531.324219,845.091797 L534.50293,845.091797 L534.50293,861 L531.324219,861 Z M532.920898,842.821289 C531.895508,842.821289 531.060547,842.000977 531.060547,840.990234 C531.060547,839.950195 531.895508,839.15918 532.920898,839.15918 C533.946289,839.15918 534.78125,839.950195 534.78125,840.990234 C534.78125,842.000977 533.946289,842.821289 532.920898,842.821289 Z M544.683594,861.19043 C540.083984,861.19043 537.154297,858.055664 537.154297,853.045898 C537.154297,848.050781 540.098633,844.886719 544.683594,844.886719 C549.268555,844.886719 552.198242,848.036133 552.198242,853.045898 C552.198242,858.055664 549.283203,861.19043 544.683594,861.19043 Z M544.683594,858.553711 C547.378906,858.553711 548.975586,856.517578 548.975586,853.045898 C548.975586,849.574219 547.378906,847.523438 544.683594,847.523438 C541.988281,847.523438 540.376953,849.588867 540.376953,853.045898 C540.376953,856.517578 541.988281,858.553711 544.683594,858.553711 Z M554.74707,861 L554.74707,845.091797 L557.779297,845.091797 L557.779297,847.772461 L557.837891,847.772461 C558.804688,845.897461 560.401367,844.916016 562.862305,844.916016 C566.37793,844.916016 568.384766,847.142578 568.384766,850.804688 L568.384766,861 L565.206055,861 L565.206055,851.405273 C565.206055,848.988281 564.092773,847.640625 561.763672,847.640625 C559.361328,847.640625 557.925781,849.310547 557.925781,851.81543 L557.925781,861 L554.74707,861 Z M578.213867,849.618164 C578.213867,846.820312 580.71875,844.901367 584.380859,844.901367 C587.867188,844.901367 590.386719,846.864258 590.459961,849.632812 L587.47168,849.632812 C587.339844,848.226562 586.124023,847.347656 584.307617,847.347656 C582.505859,847.347656 581.304688,848.182617 581.304688,849.442383 C581.304688,850.40918 582.095703,851.068359 583.780273,851.478516 L586.416992,852.108398 C589.625,852.884766 590.811523,854.041992 590.811523,856.385742 C590.811523,859.227539 588.116211,861.19043 584.263672,861.19043 C580.557617,861.19043 578.023438,859.271484 577.789062,856.400391 L580.923828,856.400391 C581.172852,857.923828 582.40332,858.758789 584.424805,858.758789 C586.402344,858.758789 587.647461,857.938477 587.647461,856.649414 C587.647461,855.638672 587.017578,855.111328 585.347656,854.686523 L582.505859,853.983398 C579.634766,853.280273 578.213867,851.81543 578.213867,849.618164 Z M606.954102,845.091797 L606.954102,861 L603.921875,861 L603.921875,858.275391 L603.863281,858.275391 C602.94043,860.165039 601.329102,861.175781 598.897461,861.175781 C595.425781,861.175781 593.316406,858.93457 593.316406,855.287109 L593.316406,845.091797 L596.495117,845.091797 L596.495117,854.686523 C596.495117,857.132812 597.652344,858.436523 599.952148,858.436523 C602.325195,858.436523 603.775391,856.78125 603.775391,854.261719 L603.775391,845.091797 L606.954102,845.091797 Z M618.40918,844.930664 C622.466797,844.930664 625.132812,848.109375 625.132812,853.045898 C625.132812,857.967773 622.481445,861.161133 618.482422,861.161133 C616.197266,861.161133 614.395508,860.150391 613.443359,858.392578 L613.384766,858.392578 L613.384766,866.273438 L610.206055,866.273438 L610.206055,845.091797 L613.267578,845.091797 L613.267578,847.728516 L613.34082,847.728516 C614.234375,846.014648 616.197266,844.930664 618.40918,844.930664 Z M617.603516,858.46582 C620.181641,858.46582 621.880859,856.341797 621.880859,853.045898 C621.880859,849.764648 620.181641,847.625977 617.603516,847.625977 C615.083984,847.625977 613.370117,849.808594 613.355469,853.045898 C613.370117,856.297852 615.069336,858.46582 617.603516,858.46582 Z M635.870117,844.930664 C639.927734,844.930664 642.59375,848.109375 642.59375,853.045898 C642.59375,857.967773 639.942383,861.161133 635.943359,861.161133 C633.658203,861.161133 631.856445,860.150391 630.904297,858.392578 L630.845703,858.392578 L630.845703,866.273438 L627.666992,866.273438 L627.666992,845.091797 L630.728516,845.091797 L630.728516,847.728516 L630.801758,847.728516 C631.695312,846.014648 633.658203,844.930664 635.870117,844.930664 Z M635.064453,858.46582 C637.642578,858.46582 639.341797,856.341797 639.341797,853.045898 C639.341797,849.764648 637.642578,847.625977 635.064453,847.625977 C632.544922,847.625977 630.831055,849.808594 630.816406,853.045898 C630.831055,856.297852 632.530273,858.46582 635.064453,858.46582 Z M651.939453,861.19043 C647.339844,861.19043 644.410156,858.055664 644.410156,853.045898 C644.410156,848.050781 647.354492,844.886719 651.939453,844.886719 C656.524414,844.886719 659.454102,848.036133 659.454102,853.045898 C659.454102,858.055664 656.539062,861.19043 651.939453,861.19043 Z M651.939453,858.553711 C654.634766,858.553711 656.231445,856.517578 656.231445,853.045898 C656.231445,849.574219 654.634766,847.523438 651.939453,847.523438 C649.244141,847.523438 647.632812,849.588867 647.632812,853.045898 C647.632812,856.517578 649.244141,858.553711 651.939453,858.553711 Z M662.00293,861 L662.00293,845.091797 L665.035156,845.091797 L665.035156,847.772461 L665.09375,847.772461 C665.591797,846 667.056641,844.930664 668.931641,844.930664 C669.400391,844.930664 669.795898,844.974609 670.044922,845.033203 L670.044922,848.006836 C669.78125,847.904297 669.224609,847.816406 668.594727,847.816406 C666.5,847.816406 665.181641,849.266602 665.181641,851.507812 L665.181641,861 L662.00293,861 Z M673.033203,841.517578 L676.197266,841.517578 L676.197266,845.091797 L679.244141,845.091797 L679.244141,847.59668 L676.197266,847.59668 L676.197266,856.488281 C676.197266,857.865234 676.8125,858.509766 678.145508,858.509766 C678.482422,858.509766 679.024414,858.46582 679.229492,858.436523 L679.229492,860.941406 C678.87793,861.029297 678.130859,861.102539 677.442383,861.102539 C674.263672,861.102539 673.033203,859.886719 673.033203,856.810547 L673.033203,847.59668 L670.835938,847.59668 L670.835938,845.091797 L673.033203,845.091797 L673.033203,841.517578 Z M689.791016,861 L689.791016,847.59668 L687.59375,847.59668 L687.59375,845.091797 L689.791016,845.091797 L689.791016,843.626953 C689.791016,840.65332 691.138672,839.349609 694.361328,839.349609 C694.932617,839.349609 695.459961,839.408203 695.972656,839.496094 L695.972656,841.913086 C695.650391,841.839844 695.210938,841.795898 694.786133,841.795898 C693.482422,841.795898 692.94043,842.367188 692.925781,843.729492 L692.925781,845.091797 L695.987305,845.091797 L695.987305,847.59668 L692.955078,847.59668 L692.955078,861 L689.791016,861 Z M705.420898,861.19043 C700.821289,861.19043 697.891602,858.055664 697.891602,853.045898 C697.891602,848.050781 700.835938,844.886719 705.420898,844.886719 C710.005859,844.886719 712.935547,848.036133 712.935547,853.045898 C712.935547,858.055664 710.020508,861.19043 705.420898,861.19043 Z M705.420898,858.553711 C708.116211,858.553711 709.712891,856.517578 709.712891,853.045898 C709.712891,849.574219 708.116211,847.523438 705.420898,847.523438 C702.725586,847.523438 701.114258,849.588867 701.114258,853.045898 C701.114258,856.517578 702.725586,858.553711 705.420898,858.553711 Z M715.484375,861 L715.484375,845.091797 L718.516602,845.091797 L718.516602,847.772461 L718.575195,847.772461 C719.073242,846 720.538086,844.930664 722.413086,844.930664 C722.881836,844.930664 723.277344,844.974609 723.526367,845.033203 L723.526367,848.006836 C723.262695,847.904297 722.706055,847.816406 722.076172,847.816406 C719.981445,847.816406 718.663086,849.266602 718.663086,851.507812 L718.663086,861 L715.484375,861 Z M735.992188,861 L732.798828,861 L732.798828,839.862305 L735.772461,839.862305 L746.729492,855.448242 L746.84668,855.448242 L746.84668,839.862305 L750.040039,839.862305 L750.040039,861 L747.081055,861 L736.124023,845.428711 L735.992188,845.428711 L735.992188,861 Z M760.425781,861.19043 C755.826172,861.19043 752.896484,858.055664 752.896484,853.045898 C752.896484,848.050781 755.84082,844.886719 760.425781,844.886719 C765.010742,844.886719 767.94043,848.036133 767.94043,853.045898 C767.94043,858.055664 765.025391,861.19043 760.425781,861.19043 Z M760.425781,858.553711 C763.121094,858.553711 764.717773,856.517578 764.717773,853.045898 C764.717773,849.574219 763.121094,847.523438 760.425781,847.523438 C757.730469,847.523438 756.119141,849.588867 756.119141,853.045898 C756.119141,856.517578 757.730469,858.553711 760.425781,858.553711 Z M776.480469,861.161133 C772.496094,861.161133 769.771484,857.953125 769.771484,853.03125 C769.771484,848.138672 772.496094,844.930664 776.451172,844.930664 C778.736328,844.930664 780.552734,845.970703 781.460938,847.728516 L781.53418,847.728516 L781.53418,838.910156 L784.698242,838.910156 L784.698242,861 L781.62207,861 L781.62207,858.304688 L781.563477,858.304688 C780.625977,860.106445 778.80957,861.161133 776.480469,861.161133 Z M777.286133,847.625977 C774.722656,847.625977 773.023438,849.764648 773.023438,853.045898 C773.023438,856.341797 774.708008,858.46582 777.286133,858.46582 C779.834961,858.46582 781.548828,856.297852 781.548828,853.045898 C781.548828,849.808594 779.834961,847.625977 777.286133,847.625977 Z M794.688477,847.479492 C792.40332,847.479492 790.748047,849.149414 790.572266,851.595703 L798.643555,851.595703 C798.570312,849.120117 797.00293,847.479492 794.688477,847.479492 Z M798.628906,856.341797 L801.661133,856.341797 C801.207031,859.198242 798.40918,861.19043 794.834961,861.19043 C790.220703,861.19043 787.349609,858.084961 787.349609,853.104492 C787.349609,848.124023 790.25,844.886719 794.703125,844.886719 C799.068359,844.886719 801.822266,847.918945 801.822266,852.738281 L801.822266,853.851562 L790.557617,853.851562 L790.557617,854.041992 C790.557617,856.795898 792.286133,858.612305 794.893555,858.612305 C796.739258,858.612305 798.189453,857.733398 798.628906,856.341797 Z M806.685547,861.161133 C805.616211,861.161133 804.766602,860.311523 804.766602,859.242188 C804.766602,858.158203 805.616211,857.323242 806.685547,857.323242 C807.769531,857.323242 808.604492,858.158203 808.604492,859.242188 C808.604492,860.311523 807.769531,861.161133 806.685547,861.161133 Z M815.547852,845.091797 L815.547852,861.688477 C815.547852,864.925781 813.87793,866.449219 810.376953,866.449219 C810.245117,866.449219 809.74707,866.43457 809.673828,866.43457 L809.673828,863.915039 L810.12793,863.915039 C811.768555,863.915039 812.369141,863.299805 812.369141,861.673828 L812.369141,845.091797 L815.547852,845.091797 Z M813.96582,842.821289 C812.94043,842.821289 812.105469,842.000977 812.105469,840.990234 C812.105469,839.950195 812.94043,839.15918 813.96582,839.15918 C814.991211,839.15918 815.826172,839.950195 815.826172,840.990234 C815.826172,842.000977 814.991211,842.821289 813.96582,842.821289 Z M818.65332,849.618164 C818.65332,846.820312 821.158203,844.901367 824.820312,844.901367 C828.306641,844.901367 830.826172,846.864258 830.899414,849.632812 L827.911133,849.632812 C827.779297,848.226562 826.563477,847.347656 824.74707,847.347656 C822.945312,847.347656 821.744141,848.182617 821.744141,849.442383 C821.744141,850.40918 822.535156,851.068359 824.219727,851.478516 L826.856445,852.108398 C830.064453,852.884766 831.250977,854.041992 831.250977,856.385742 C831.250977,859.227539 828.555664,861.19043 824.703125,861.19043 C820.99707,861.19043 818.462891,859.271484 818.228516,856.400391 L821.363281,856.400391 C821.612305,857.923828 822.842773,858.758789 824.864258,858.758789 C826.841797,858.758789 828.086914,857.938477 828.086914,856.649414 C828.086914,855.638672 827.457031,855.111328 825.787109,854.686523 L822.945312,853.983398 C820.074219,853.280273 818.65332,851.81543 818.65332,849.618164 Z"/>
  </g>
</svg>
