<svg xmlns="http://www.w3.org/2000/svg" width="500" height="513" viewBox="0 0 500 513">
  <g fill="none" fill-rule="evenodd">
    <g transform="translate(62)">
      <path fill="#E48E66" fill-rule="nonzero" d="M185.611201,120.765318 C169.831179,115.885118 152.89163,123.558993 146.13935,138.657932 C139.38707,153.752507 144.944951,171.518531 159.094661,180.061064 C173.240013,188.599234 191.52653,185.224998 201.70508,172.199489 C211.88363,159.169616 210.750259,140.587315 199.07217,128.893167 C195.310248,125.126071 190.693937,122.33676 185.611201,120.765318 Z M184.77425,74.311747 C226.839779,73.6176932 263.499995,102.859611 272.21824,144.075043 C280.936484,185.286109 259.271647,226.907498 220.540846,243.350891 C181.810047,259.794286 136.871857,246.450125 113.354392,211.520461 C89.8369286,176.590797 94.3355426,129.870952 124.082192,100.083396 C140.189148,83.9062741 161.967323,74.6609565 184.77425,74.311747 Z"/>
      <path fill="#D18162" d="M185.611201,120.765318 C185.685306,120.79151 185.755052,120.817701 185.824798,120.839527 L185.824798,74.3204765 C185.476068,74.3204765 185.127338,74.3073822 184.77425,74.311747 C136.597232,75.0931033 98.0320781,114.575583 98.3197804,162.827585 C98.6074821,211.075219 137.643421,250.094998 185.824798,250.300158 L185.824798,183.238869 C172.41178,187.490493 157.782565,182.667039 149.51767,171.265354 C141.248416,159.86367 141.196106,144.446077 149.386896,132.987646 C157.577686,121.529214 172.172027,116.609728 185.611201,120.769685 L185.611201,120.765318 Z"/>
      <path fill="#F8EC7D" d="M365.346525,317.968197 L365.547044,359.916969 L365.512171,360.209432 L331.297422,360.619753 L327.012404,338.898932 L301.402563,330.60521 L296.280594,308.089938 L270.448435,299.988281 L266.70831,274.509095 L231.198901,238.950854 L230.762988,238.191324 C242.053114,231.517061 251.721647,222.420156 259.075486,211.551016 L365.346525,317.968197 Z"/>
      <path fill="#63316D" fill-rule="nonzero" d="M255.457415,92.9726214 C238.574534,75.9443013 215.998642,65.7823098 192.07578,64.4378527 C177.930427,26.5180844 142.159472,1.03453238 101.74605,0.0829372738 C61.3326295,-0.868658504 24.4108646,22.9081325 8.50006938,60.1207524 C-7.40636811,97.3377379 0.906478076,140.500012 29.4892416,169.126447 C46.9170125,186.687312 70.325498,197.006447 95.0286429,198.019155 C104.941286,223.45469 125.001967,243.595338 150.376416,253.587091 C175.750867,263.583208 204.13747,262.52685 228.701123,250.671192 L257.253374,279.267072 L260.509637,301.450595 C261.071965,305.270073 263.765901,308.430417 267.445001,309.582807 L287.771588,315.955879 L291.611974,332.835784 C292.396616,336.292957 294.942343,339.082266 298.311944,340.173545 L318.302879,346.642649 L321.445805,362.566594 C322.374298,367.276556 326.502387,370.672616 331.297422,370.672616 L331.419477,370.672616 L365.634227,370.257931 C370.68209,370.201184 374.901721,366.390437 375.490202,361.366187 L375.520715,361.07809 C375.568666,360.676499 375.590461,360.270543 375.590461,359.864587 L375.389942,317.915816 C375.376865,315.26619 374.317599,312.725691 372.447535,310.853057 L271.777969,210.045051 C293.037407,171.745517 286.381027,123.973679 255.457415,92.9726214 Z M168.135481,156.393402 C172.769227,159.453348 178.998413,158.17437 182.049799,153.538616 C185.789925,147.863963 188.928493,141.813912 191.417552,135.484493 C191.600634,135.659098 191.788077,135.820607 191.966802,136.003941 C199.377308,143.394083 200.780946,154.896167 195.362557,163.857751 C189.948528,172.814972 179.116109,176.905086 169.142437,173.757836 C159.168765,170.606222 152.638801,161.037886 153.331902,150.587796 C154.025003,140.137707 161.762444,131.520966 172.067409,129.722539 C170.206064,134.166228 167.93496,138.430946 165.284614,142.459949 C162.233229,147.100068 163.510452,153.33782 168.13984,156.393402 L168.135481,156.393402 Z M43.6912621,43.2888622 C61.8382867,25.121247 87.6835226,16.9366528 112.966431,21.3497862 C138.244979,25.7629194 159.800839,42.2237737 170.737876,65.4680211 C117.508636,74.0236498 81.1840714,124.034792 89.4576846,177.380883 C72.1214561,175.224516 56.0101407,167.310559 43.6956209,154.900533 C12.9725281,124.056617 12.9725281,74.1327778 43.6912621,43.2888622 Z M131.178843,217.426463 C110.111206,196.32549 102.918654,165.031968 112.656933,136.828948 C122.399571,108.625929 147.364264,88.4678206 176.953984,84.9146153 C178.409931,92.9595254 178.619169,101.183406 177.564262,109.289427 C157.050233,108.525533 138.89449,122.48081 134.330488,142.52106 C129.762129,162.565676 140.080171,183.024978 158.898501,191.240129 C177.716831,199.459644 199.708603,193.108399 211.268994,176.123729 C222.833745,159.13906 220.689057,136.318229 206.17318,121.782391 C203.457447,119.076019 200.392984,116.740682 197.058256,114.850586 C198.636258,105.020344 198.7278,95.0067651 197.33288,85.1503321 C223.853779,88.9916347 246.538651,106.216385 257.388507,130.748341 C268.238361,155.280297 265.731866,183.675382 250.753922,205.924382 C237.755021,225.222562 216.818156,237.689336 193.679937,239.919911 C170.541716,242.14612 147.621451,233.900414 131.187562,217.435194 L131.178843,217.426463 Z M355.455677,350.270061 L339.531803,350.462126 L336.864022,336.947725 C336.157843,333.368329 333.568524,330.452431 330.103023,329.326231 L309.929005,322.796016 L306.075542,305.854998 C305.277822,302.362905 302.692863,299.560499 299.284028,298.491046 L279.46746,292.27512 L276.647107,273.046781 C276.333251,270.907874 275.339371,268.926111 273.809319,267.398319 L246.246589,239.793322 C249.485417,237.274649 252.567317,234.555182 255.466133,231.652379 C257.048495,230.063476 258.55675,228.409098 260.025775,226.728527 L355.324903,322.15871 L355.455677,350.270061 Z"/>
    </g>
    <path fill="#E48E66" d="M22,457.651736 L22,371 L48.9242149,371 L48.9242149,412.782755 L62.8014534,392.840985 L92.0978458,392.840985 L71.815728,419.192609 L92.4536725,457.651736 L63.6317155,457.651736 L54.2616143,439.846585 L48.9242149,446.731243 L48.9242149,457.651736 L22,457.651736 Z M128.392162,459.194849 C107.161173,459.194849 92.8094991,445.781635 92.8094991,425.602464 L92.8094991,425.365062 C92.8094991,406.016797 106.686738,391.297872 126.138593,391.297872 C149.148715,391.297872 159.823514,407.322508 159.823514,427.026876 C159.823514,428.451288 159.823514,430.113102 159.704905,431.537514 L118.07319,431.537514 C119.970932,437.235162 124.478069,440.202688 130.289904,440.202688 C135.152868,440.202688 139.18557,437.947368 143.455489,433.555431 L157.925772,445.069429 C151.520893,453.378499 142.388009,459.194849 128.392162,459.194849 Z M117.717363,419.667413 L135.271477,419.667413 C134.678432,413.494961 131.001557,409.933931 126.257202,409.933931 C121.750065,409.933931 118.547625,413.732363 117.717363,419.667413 Z M188.408253,477 C179.038152,477 170.616922,474.269877 163.38178,470.234043 L171.209966,451.835386 C176.07293,454.56551 180.580067,456.108623 183.070854,456.108623 C184.612769,456.108623 186.036076,455.871221 187.459382,455.159015 L162.077083,392.840985 L189.950169,392.840985 L201.218012,427.026876 L211.536984,392.840985 L238.935635,392.840985 L216.518557,453.141097 C210.232287,470.115342 203.352972,477 188.408253,477 Z M243.086945,457.651736 L243.086945,392.840985 L270.01116,392.840985 L270.01116,405.898096 C273.688035,397.114222 279.618479,391.416573 290.293278,391.891377 L290.293278,420.49832 L287.446665,420.49832 C276.060213,420.49832 270.01116,426.789474 270.01116,441.152296 L270.01116,457.651736 L243.086945,457.651736 Z M294.681806,388.211646 L294.681806,371 L322.554892,371 L322.554892,388.211646 L294.681806,388.211646 Z M295.156242,457.651736 L295.156242,392.840985 L322.080457,392.840985 L322.080457,457.651736 L295.156242,457.651736 Z M330.383078,457.651736 L330.383078,392.840985 L357.307293,392.840985 L357.307293,401.862262 C361.458604,396.520717 367.982092,391.297872 377.114975,391.297872 C390.754996,391.297872 399.294835,400.319149 399.294835,414.919373 L399.294835,457.651736 L372.37062,457.651736 L372.37062,423.584546 C372.37062,418.005599 369.049572,414.800672 365.01687,414.800672 C360.984168,414.800672 357.307293,418.005599 357.307293,423.584546 L357.307293,457.651736 L330.383078,457.651736 Z M441.400986,476.881299 C427.049312,476.881299 415.900078,474.032475 405.462497,468.80963 L413.765118,452.547592 C421.00026,456.346025 428.235401,458.720045 437.131067,458.720045 C447.212821,458.720045 452.550221,453.4972 452.550221,444.475924 L452.550221,442.576708 C448.873345,446.731243 442.824293,451.479283 433.810018,451.479283 C417.086167,451.479283 404.988061,439.609183 404.988061,421.68533 L404.988061,421.447928 C404.988061,403.286674 417.323384,391.297872 432.268103,391.297872 C441.756813,391.297872 447.33143,394.858903 452.075785,399.725644 L452.075785,392.840985 L479,392.840985 L479,441.270997 C479,453.259798 476.509214,461.450168 470.57877,467.385218 C464.766935,473.201568 455.871269,476.881299 441.400986,476.881299 Z M441.875422,431.774916 C448.517519,431.774916 452.668829,427.264278 452.668829,421.566629 L452.668829,421.329227 C452.668829,415.75028 448.39891,411.239642 441.875422,411.239642 C435.233325,411.239642 431.082014,415.868981 431.082014,421.566629 L431.082014,421.804031 C431.082014,427.382979 435.351934,431.774916 441.875422,431.774916 Z"/>
    <path fill="#63316D" d="M0.645507812,505.466797 L2.58789062,505.466797 C2.72851562,506.723633 3.95019531,507.549805 5.62011719,507.549805 C7.21972656,507.549805 8.37109375,506.723633 8.37109375,505.589844 C8.37109375,504.605469 7.67675781,504.016602 6.03320313,503.612305 L4.38964844,503.216797 C2.06054688,502.654297 0.979492188,501.564453 0.979492188,499.797852 C0.979492188,497.609375 2.88671875,496.106445 5.59375,496.106445 C8.27441406,496.106445 10.1113281,497.609375 10.1728516,499.797852 L8.25683594,499.797852 C8.14257812,498.532227 7.09667969,497.767578 5.56738281,497.767578 C4.03808594,497.767578 2.9921875,498.541016 2.9921875,499.666016 C2.9921875,500.5625 3.66015625,501.089844 5.29492188,501.494141 L6.69238281,501.836914 C9.29394531,502.452148 10.375,503.498047 10.375,505.352539 C10.375,507.725586 8.48535156,509.210938 5.47949219,509.210938 C2.66699219,509.210938 0.768554688,507.760742 0.645507812,505.466797 Z M12.0185547,509 L12.0185547,499.455078 L13.9257812,499.455078 L13.9257812,509 L12.0185547,509 Z M12.9765625,498.092773 C12.3613281,498.092773 11.8603516,497.600586 11.8603516,496.994141 C11.8603516,496.370117 12.3613281,495.895508 12.9765625,495.895508 C13.5917969,495.895508 14.0927734,496.370117 14.0927734,496.994141 C14.0927734,497.600586 13.5917969,498.092773 12.9765625,498.092773 Z M15.9472656,509 L15.9472656,499.455078 L17.7666016,499.455078 L17.7666016,501.072266 L17.8017578,501.072266 C18.2412109,500 19.2695312,499.349609 20.5175781,499.349609 C21.8447266,499.349609 22.8027344,500.017578 23.1894531,501.204102 L23.2333984,501.204102 C23.734375,500.052734 24.859375,499.349609 26.2216797,499.349609 C28.1025391,499.349609 29.3330078,500.588867 29.3330078,502.496094 L29.3330078,509 L27.4345703,509 L27.4345703,502.953125 C27.4345703,501.705078 26.7578125,500.984375 25.5712891,500.984375 C24.4023438,500.984375 23.5761719,501.854492 23.5761719,503.076172 L23.5761719,509 L21.7041016,509 L21.7041016,502.794922 C21.7041016,501.6875 20.9921875,500.984375 19.8759766,500.984375 C18.6982422,500.984375 17.8544922,501.898438 17.8544922,503.146484 L17.8544922,509 L15.9472656,509 Z M36.1621094,499.358398 C38.5966797,499.358398 40.1962891,501.265625 40.1962891,504.227539 C40.1962891,507.180664 38.6054688,509.09668 36.2060547,509.09668 C34.8349609,509.09668 33.7539062,508.490234 33.1826172,507.435547 L33.1474609,507.435547 L33.1474609,512.164062 L31.2402344,512.164062 L31.2402344,499.455078 L33.0771484,499.455078 L33.0771484,501.037109 L33.1210938,501.037109 C33.6572266,500.008789 34.8349609,499.358398 36.1621094,499.358398 Z M35.6787109,507.479492 C37.2255859,507.479492 38.2451172,506.205078 38.2451172,504.227539 C38.2451172,502.258789 37.2255859,500.975586 35.6787109,500.975586 C34.1669922,500.975586 33.1386719,502.285156 33.1298828,504.227539 C33.1386719,506.178711 34.1582031,507.479492 35.6787109,507.479492 Z M41.7958984,509 L41.7958984,495.746094 L43.703125,495.746094 L43.703125,509 L41.7958984,509 Z M49.7060547,500.887695 C48.3349609,500.887695 47.3417969,501.889648 47.2363281,503.357422 L52.0791016,503.357422 C52.0351562,501.87207 51.0947266,500.887695 49.7060547,500.887695 Z M52.0703125,506.205078 L53.8896484,506.205078 C53.6171875,507.918945 51.9384766,509.114258 49.7939453,509.114258 C47.0253906,509.114258 45.3027344,507.250977 45.3027344,504.262695 C45.3027344,501.274414 47.0429688,499.332031 49.7148438,499.332031 C52.3339844,499.332031 53.9863281,501.151367 53.9863281,504.042969 L53.9863281,504.710938 L47.2275391,504.710938 L47.2275391,504.825195 C47.2275391,506.477539 48.2646484,507.567383 49.8291016,507.567383 C50.9365234,507.567383 51.8066406,507.040039 52.0703125,506.205078 Z M63.6367188,500.887695 C62.265625,500.887695 61.2724609,501.889648 61.1669922,503.357422 L66.0097656,503.357422 C65.9658203,501.87207 65.0253906,500.887695 63.6367188,500.887695 Z M66.0009766,506.205078 L67.8203125,506.205078 C67.5478516,507.918945 65.8691406,509.114258 63.7246094,509.114258 C60.9560547,509.114258 59.2333984,507.250977 59.2333984,504.262695 C59.2333984,501.274414 60.9736328,499.332031 63.6455078,499.332031 C66.2646484,499.332031 67.9169922,501.151367 67.9169922,504.042969 L67.9169922,504.710938 L61.1582031,504.710938 L61.1582031,504.825195 C61.1582031,506.477539 62.1953125,507.567383 63.7597656,507.567383 C64.8671875,507.567383 65.7373047,507.040039 66.0009766,506.205078 Z M69.4462891,509 L69.4462891,499.455078 L71.265625,499.455078 L71.265625,501.063477 L71.3007812,501.063477 C71.8808594,499.938477 72.8388672,499.349609 74.3154297,499.349609 C76.4248047,499.349609 77.6289062,500.685547 77.6289062,502.882812 L77.6289062,509 L75.7216797,509 L75.7216797,503.243164 C75.7216797,501.792969 75.0537109,500.984375 73.65625,500.984375 C72.2148438,500.984375 71.3535156,501.986328 71.3535156,503.489258 L71.3535156,509 L69.4462891,509 Z M87.6923828,502.71582 L85.8730469,502.71582 C85.6972656,501.705078 84.90625,500.94043 83.5966797,500.94043 C82.0585938,500.94043 81.0390625,502.223633 81.0390625,504.227539 C81.0390625,506.28418 82.0761719,507.514648 83.6054688,507.514648 C84.8447266,507.514648 85.6621094,506.908203 85.890625,505.791992 L87.7099609,505.791992 C87.4902344,507.787109 85.890625,509.114258 83.5966797,509.114258 C80.8896484,509.114258 79.1054688,507.250977 79.1054688,504.227539 C79.1054688,501.256836 80.8808594,499.332031 83.5791016,499.332031 C86.0136719,499.332031 87.5253906,500.878906 87.6923828,502.71582 Z M89.1074219,509 L89.1074219,499.455078 L90.9267578,499.455078 L90.9267578,501.063477 L90.9619141,501.063477 C91.2607422,500 92.1396484,499.358398 93.2646484,499.358398 C93.5458984,499.358398 93.7832031,499.384766 93.9326172,499.419922 L93.9326172,501.204102 C93.7744141,501.142578 93.4404297,501.089844 93.0625,501.089844 C91.8056641,501.089844 91.0146484,501.959961 91.0146484,503.304688 L91.0146484,509 L89.1074219,509 Z M96.1123047,512.47168 C95.9541016,512.47168 95.4882812,512.445312 95.3388672,512.418945 L95.3388672,510.87207 C95.4794922,510.907227 95.7783203,510.916016 95.9453125,510.916016 C96.8505859,510.916016 97.3515625,510.529297 97.6767578,509.518555 L97.8261719,509.026367 L94.3632812,499.455078 L96.4111328,499.455078 L98.8632812,507.259766 L98.9072266,507.259766 L101.359375,499.455078 L103.363281,499.455078 L99.7861328,509.439453 C98.96875,511.733398 98.0634766,512.47168 96.1123047,512.47168 Z M109.445312,499.358398 C111.879883,499.358398 113.479492,501.265625 113.479492,504.227539 C113.479492,507.180664 111.888672,509.09668 109.489258,509.09668 C108.118164,509.09668 107.037109,508.490234 106.46582,507.435547 L106.430664,507.435547 L106.430664,512.164062 L104.523438,512.164062 L104.523438,499.455078 L106.360352,499.455078 L106.360352,501.037109 L106.404297,501.037109 C106.94043,500.008789 108.118164,499.358398 109.445312,499.358398 Z M108.961914,507.479492 C110.508789,507.479492 111.52832,506.205078 111.52832,504.227539 C111.52832,502.258789 110.508789,500.975586 108.961914,500.975586 C107.450195,500.975586 106.421875,502.285156 106.413086,504.227539 C106.421875,506.178711 107.441406,507.479492 108.961914,507.479492 Z M115.571289,497.310547 L117.469727,497.310547 L117.469727,499.455078 L119.297852,499.455078 L119.297852,500.958008 L117.469727,500.958008 L117.469727,506.292969 C117.469727,507.119141 117.838867,507.505859 118.638672,507.505859 C118.84082,507.505859 119.166016,507.479492 119.289062,507.461914 L119.289062,508.964844 C119.078125,509.017578 118.629883,509.061523 118.216797,509.061523 C116.30957,509.061523 115.571289,508.332031 115.571289,506.486328 L115.571289,500.958008 L114.25293,500.958008 L114.25293,499.455078 L115.571289,499.455078 L115.571289,497.310547 Z M120.976562,509 L120.976562,499.455078 L122.883789,499.455078 L122.883789,509 L120.976562,509 Z M121.93457,498.092773 C121.319336,498.092773 120.818359,497.600586 120.818359,496.994141 C120.818359,496.370117 121.319336,495.895508 121.93457,495.895508 C122.549805,495.895508 123.050781,496.370117 123.050781,496.994141 C123.050781,497.600586 122.549805,498.092773 121.93457,498.092773 Z M128.992188,509.114258 C126.232422,509.114258 124.474609,507.233398 124.474609,504.227539 C124.474609,501.230469 126.241211,499.332031 128.992188,499.332031 C131.743164,499.332031 133.500977,501.22168 133.500977,504.227539 C133.500977,507.233398 131.751953,509.114258 128.992188,509.114258 Z M128.992188,507.532227 C130.609375,507.532227 131.567383,506.310547 131.567383,504.227539 C131.567383,502.144531 130.609375,500.914062 128.992188,500.914062 C127.375,500.914062 126.408203,502.15332 126.408203,504.227539 C126.408203,506.310547 127.375,507.532227 128.992188,507.532227 Z M135.030273,509 L135.030273,499.455078 L136.849609,499.455078 L136.849609,501.063477 L136.884766,501.063477 C137.464844,499.938477 138.422852,499.349609 139.899414,499.349609 C142.008789,499.349609 143.212891,500.685547 143.212891,502.882812 L143.212891,509 L141.305664,509 L141.305664,503.243164 C141.305664,501.792969 140.637695,500.984375 139.240234,500.984375 C137.798828,500.984375 136.9375,501.986328 136.9375,503.489258 L136.9375,509 L135.030273,509 Z M150.929688,504.825195 L145.164062,504.825195 L145.164062,503.111328 L150.929688,503.111328 L150.929688,504.825195 Z M156.238281,507.576172 C157.65332,507.576172 158.725586,506.670898 158.725586,505.414062 L158.725586,504.666992 L156.405273,504.825195 C155.104492,504.904297 154.427734,505.387695 154.427734,506.231445 C154.427734,507.048828 155.139648,507.576172 156.238281,507.576172 Z M155.728516,509.09668 C153.821289,509.09668 152.50293,507.97168 152.50293,506.266602 C152.50293,504.59668 153.794922,503.629883 156.150391,503.480469 L158.725586,503.331055 L158.725586,502.592773 C158.725586,501.50293 157.996094,500.905273 156.72168,500.905273 C155.68457,500.905273 154.928711,501.441406 154.761719,502.267578 L152.977539,502.267578 C153.030273,500.580078 154.629883,499.332031 156.774414,499.332031 C159.103516,499.332031 160.606445,500.5625 160.606445,502.452148 L160.606445,509 L158.787109,509 L158.787109,507.40918 L158.743164,507.40918 C158.21582,508.446289 157.029297,509.09668 155.728516,509.09668 Z M163.09375,497.310547 L164.992188,497.310547 L164.992188,499.455078 L166.820312,499.455078 L166.820312,500.958008 L164.992188,500.958008 L164.992188,506.292969 C164.992188,507.119141 165.361328,507.505859 166.161133,507.505859 C166.363281,507.505859 166.688477,507.479492 166.811523,507.461914 L166.811523,508.964844 C166.600586,509.017578 166.152344,509.061523 165.739258,509.061523 C163.832031,509.061523 163.09375,508.332031 163.09375,506.486328 L163.09375,500.958008 L161.775391,500.958008 L161.775391,499.455078 L163.09375,499.455078 L163.09375,497.310547 Z M174.238281,504.825195 L168.472656,504.825195 L168.472656,503.111328 L174.238281,503.111328 L174.238281,504.825195 Z M176.233398,509 L176.233398,499.455078 L178.052734,499.455078 L178.052734,501.063477 L178.087891,501.063477 C178.386719,500 179.265625,499.358398 180.390625,499.358398 C180.671875,499.358398 180.90918,499.384766 181.058594,499.419922 L181.058594,501.204102 C180.900391,501.142578 180.566406,501.089844 180.188477,501.089844 C178.931641,501.089844 178.140625,501.959961 178.140625,503.304688 L178.140625,509 L176.233398,509 Z M186.25293,500.887695 C184.881836,500.887695 183.888672,501.889648 183.783203,503.357422 L188.625977,503.357422 C188.582031,501.87207 187.641602,500.887695 186.25293,500.887695 Z M188.617188,506.205078 L190.436523,506.205078 C190.164062,507.918945 188.485352,509.114258 186.34082,509.114258 C183.572266,509.114258 181.849609,507.250977 181.849609,504.262695 C181.849609,501.274414 183.589844,499.332031 186.261719,499.332031 C188.880859,499.332031 190.533203,501.151367 190.533203,504.042969 L190.533203,504.710938 L183.774414,504.710938 L183.774414,504.825195 C183.774414,506.477539 184.811523,507.567383 186.375977,507.567383 C187.483398,507.567383 188.353516,507.040039 188.617188,506.205078 Z M191.904297,502.170898 C191.904297,500.492188 193.407227,499.34082 195.604492,499.34082 C197.696289,499.34082 199.208008,500.518555 199.251953,502.179688 L197.458984,502.179688 C197.379883,501.335938 196.650391,500.808594 195.560547,500.808594 C194.479492,500.808594 193.758789,501.30957 193.758789,502.06543 C193.758789,502.645508 194.233398,503.041016 195.244141,503.287109 L196.826172,503.665039 C198.750977,504.130859 199.462891,504.825195 199.462891,506.231445 C199.462891,507.936523 197.845703,509.114258 195.53418,509.114258 C193.310547,509.114258 191.790039,507.962891 191.649414,506.240234 L193.530273,506.240234 C193.679688,507.154297 194.417969,507.655273 195.630859,507.655273 C196.817383,507.655273 197.564453,507.163086 197.564453,506.389648 C197.564453,505.783203 197.186523,505.466797 196.18457,505.211914 L194.479492,504.790039 C192.756836,504.368164 191.904297,503.489258 191.904297,502.170898 Z M201.581055,497.310547 L203.479492,497.310547 L203.479492,499.455078 L205.307617,499.455078 L205.307617,500.958008 L203.479492,500.958008 L203.479492,506.292969 C203.479492,507.119141 203.848633,507.505859 204.648438,507.505859 C204.850586,507.505859 205.175781,507.479492 205.298828,507.461914 L205.298828,508.964844 C205.087891,509.017578 204.639648,509.061523 204.226562,509.061523 C202.319336,509.061523 201.581055,508.332031 201.581055,506.486328 L201.581055,500.958008 L200.262695,500.958008 L200.262695,499.455078 L201.581055,499.455078 L201.581055,497.310547 Z M223.597656,499.455078 L220.969727,509 L219.000977,509 L216.970703,501.810547 L216.926758,501.810547 L214.914062,509 L212.954102,509 L210.317383,499.455078 L212.21582,499.455078 L213.991211,507.013672 L214.026367,507.013672 L216.047852,499.455078 L217.875977,499.455078 L219.90625,507.013672 L219.941406,507.013672 L221.716797,499.455078 L223.597656,499.455078 Z M224.87207,509 L224.87207,499.455078 L226.779297,499.455078 L226.779297,509 L224.87207,509 Z M225.830078,498.092773 C225.214844,498.092773 224.713867,497.600586 224.713867,496.994141 C224.713867,496.370117 225.214844,495.895508 225.830078,495.895508 C226.445312,495.895508 226.946289,496.370117 226.946289,496.994141 C226.946289,497.600586 226.445312,498.092773 225.830078,498.092773 Z M229.37207,497.310547 L231.270508,497.310547 L231.270508,499.455078 L233.098633,499.455078 L233.098633,500.958008 L231.270508,500.958008 L231.270508,506.292969 C231.270508,507.119141 231.639648,507.505859 232.439453,507.505859 C232.641602,507.505859 232.966797,507.479492 233.089844,507.461914 L233.089844,508.964844 C232.878906,509.017578 232.430664,509.061523 232.017578,509.061523 C230.110352,509.061523 229.37207,508.332031 229.37207,506.486328 L229.37207,500.958008 L228.053711,500.958008 L228.053711,499.455078 L229.37207,499.455078 L229.37207,497.310547 Z M234.786133,509 L234.786133,495.746094 L236.675781,495.746094 L236.675781,501.063477 L236.719727,501.063477 C237.291016,499.938477 238.275391,499.349609 239.734375,499.349609 C241.834961,499.349609 243.091797,500.74707 243.091797,502.900391 L243.091797,509 L241.18457,509 L241.18457,503.269531 C241.18457,501.845703 240.472656,500.984375 239.075195,500.984375 C237.589844,500.984375 236.693359,502.003906 236.693359,503.533203 L236.693359,509 L234.786133,509 Z M251.142578,503.577148 L255.071289,499.455078 L257.3125,499.455078 L253.322266,503.568359 L257.453125,509 L255.255859,509 L251.959961,504.728516 L251.133789,505.537109 L251.133789,509 L249.226562,509 L249.226562,495.746094 L251.133789,495.746094 L251.133789,503.577148 L251.142578,503.577148 Z M262.454102,500.887695 C261.083008,500.887695 260.089844,501.889648 259.984375,503.357422 L264.827148,503.357422 C264.783203,501.87207 263.842773,500.887695 262.454102,500.887695 Z M264.818359,506.205078 L266.637695,506.205078 C266.365234,507.918945 264.686523,509.114258 262.541992,509.114258 C259.773438,509.114258 258.050781,507.250977 258.050781,504.262695 C258.050781,501.274414 259.791016,499.332031 262.462891,499.332031 C265.082031,499.332031 266.734375,501.151367 266.734375,504.042969 L266.734375,504.710938 L259.975586,504.710938 L259.975586,504.825195 C259.975586,506.477539 261.012695,507.567383 262.577148,507.567383 C263.68457,507.567383 264.554688,507.040039 264.818359,506.205078 Z M269.22168,512.47168 C269.063477,512.47168 268.597656,512.445312 268.448242,512.418945 L268.448242,510.87207 C268.588867,510.907227 268.887695,510.916016 269.054688,510.916016 C269.959961,510.916016 270.460938,510.529297 270.786133,509.518555 L270.935547,509.026367 L267.472656,499.455078 L269.520508,499.455078 L271.972656,507.259766 L272.016602,507.259766 L274.46875,499.455078 L276.472656,499.455078 L272.895508,509.439453 C272.078125,511.733398 271.172852,512.47168 269.22168,512.47168 Z M281.78125,509 L281.78125,499.455078 L283.600586,499.455078 L283.600586,501.063477 L283.635742,501.063477 C283.93457,500 284.813477,499.358398 285.938477,499.358398 C286.219727,499.358398 286.457031,499.384766 286.606445,499.419922 L286.606445,501.204102 C286.448242,501.142578 286.114258,501.089844 285.736328,501.089844 C284.479492,501.089844 283.688477,501.959961 283.688477,503.304688 L283.688477,509 L281.78125,509 Z M291.915039,509.114258 C289.155273,509.114258 287.397461,507.233398 287.397461,504.227539 C287.397461,501.230469 289.164062,499.332031 291.915039,499.332031 C294.666016,499.332031 296.423828,501.22168 296.423828,504.227539 C296.423828,507.233398 294.674805,509.114258 291.915039,509.114258 Z M291.915039,507.532227 C293.532227,507.532227 294.490234,506.310547 294.490234,504.227539 C294.490234,502.144531 293.532227,500.914062 291.915039,500.914062 C290.297852,500.914062 289.331055,502.15332 289.331055,504.227539 C289.331055,506.310547 290.297852,507.532227 291.915039,507.532227 Z M298.524414,497.310547 L300.422852,497.310547 L300.422852,499.455078 L302.250977,499.455078 L302.250977,500.958008 L300.422852,500.958008 L300.422852,506.292969 C300.422852,507.119141 300.791992,507.505859 301.591797,507.505859 C301.793945,507.505859 302.119141,507.479492 302.242188,507.461914 L302.242188,508.964844 C302.03125,509.017578 301.583008,509.061523 301.169922,509.061523 C299.262695,509.061523 298.524414,508.332031 298.524414,506.486328 L298.524414,500.958008 L297.206055,500.958008 L297.206055,499.455078 L298.524414,499.455078 L298.524414,497.310547 Z M307.172852,507.576172 C308.587891,507.576172 309.660156,506.670898 309.660156,505.414062 L309.660156,504.666992 L307.339844,504.825195 C306.039062,504.904297 305.362305,505.387695 305.362305,506.231445 C305.362305,507.048828 306.074219,507.576172 307.172852,507.576172 Z M306.663086,509.09668 C304.755859,509.09668 303.4375,507.97168 303.4375,506.266602 C303.4375,504.59668 304.729492,503.629883 307.084961,503.480469 L309.660156,503.331055 L309.660156,502.592773 C309.660156,501.50293 308.930664,500.905273 307.65625,500.905273 C306.619141,500.905273 305.863281,501.441406 305.696289,502.267578 L303.912109,502.267578 C303.964844,500.580078 305.564453,499.332031 307.708984,499.332031 C310.038086,499.332031 311.541016,500.5625 311.541016,502.452148 L311.541016,509 L309.72168,509 L309.72168,507.40918 L309.677734,507.40918 C309.150391,508.446289 307.963867,509.09668 306.663086,509.09668 Z M314.02832,497.310547 L315.926758,497.310547 L315.926758,499.455078 L317.754883,499.455078 L317.754883,500.958008 L315.926758,500.958008 L315.926758,506.292969 C315.926758,507.119141 316.295898,507.505859 317.095703,507.505859 C317.297852,507.505859 317.623047,507.479492 317.746094,507.461914 L317.746094,508.964844 C317.535156,509.017578 317.086914,509.061523 316.673828,509.061523 C314.766602,509.061523 314.02832,508.332031 314.02832,506.486328 L314.02832,500.958008 L312.709961,500.958008 L312.709961,499.455078 L314.02832,499.455078 L314.02832,497.310547 Z M319.433594,509 L319.433594,499.455078 L321.34082,499.455078 L321.34082,509 L319.433594,509 Z M320.391602,498.092773 C319.776367,498.092773 319.275391,497.600586 319.275391,496.994141 C319.275391,496.370117 319.776367,495.895508 320.391602,495.895508 C321.006836,495.895508 321.507812,496.370117 321.507812,496.994141 C321.507812,497.600586 321.006836,498.092773 320.391602,498.092773 Z M327.449219,509.114258 C324.689453,509.114258 322.931641,507.233398 322.931641,504.227539 C322.931641,501.230469 324.698242,499.332031 327.449219,499.332031 C330.200195,499.332031 331.958008,501.22168 331.958008,504.227539 C331.958008,507.233398 330.208984,509.114258 327.449219,509.114258 Z M327.449219,507.532227 C329.066406,507.532227 330.024414,506.310547 330.024414,504.227539 C330.024414,502.144531 329.066406,500.914062 327.449219,500.914062 C325.832031,500.914062 324.865234,502.15332 324.865234,504.227539 C324.865234,506.310547 325.832031,507.532227 327.449219,507.532227 Z M333.487305,509 L333.487305,499.455078 L335.306641,499.455078 L335.306641,501.063477 L335.341797,501.063477 C335.921875,499.938477 336.879883,499.349609 338.356445,499.349609 C340.46582,499.349609 341.669922,500.685547 341.669922,502.882812 L341.669922,509 L339.762695,509 L339.762695,503.243164 C339.762695,501.792969 339.094727,500.984375 337.697266,500.984375 C336.255859,500.984375 335.394531,501.986328 335.394531,503.489258 L335.394531,509 L333.487305,509 Z M347.567383,502.170898 C347.567383,500.492188 349.070312,499.34082 351.267578,499.34082 C353.359375,499.34082 354.871094,500.518555 354.915039,502.179688 L353.12207,502.179688 C353.042969,501.335938 352.313477,500.808594 351.223633,500.808594 C350.142578,500.808594 349.421875,501.30957 349.421875,502.06543 C349.421875,502.645508 349.896484,503.041016 350.907227,503.287109 L352.489258,503.665039 C354.414062,504.130859 355.125977,504.825195 355.125977,506.231445 C355.125977,507.936523 353.508789,509.114258 351.197266,509.114258 C348.973633,509.114258 347.453125,507.962891 347.3125,506.240234 L349.193359,506.240234 C349.342773,507.154297 350.081055,507.655273 351.293945,507.655273 C352.480469,507.655273 353.227539,507.163086 353.227539,506.389648 C353.227539,505.783203 352.849609,505.466797 351.847656,505.211914 L350.142578,504.790039 C348.419922,504.368164 347.567383,503.489258 347.567383,502.170898 Z M364.811523,499.455078 L364.811523,509 L362.992188,509 L362.992188,507.365234 L362.957031,507.365234 C362.40332,508.499023 361.436523,509.105469 359.977539,509.105469 C357.894531,509.105469 356.628906,507.760742 356.628906,505.572266 L356.628906,499.455078 L358.536133,499.455078 L358.536133,505.211914 C358.536133,506.679688 359.230469,507.461914 360.610352,507.461914 C362.03418,507.461914 362.904297,506.46875 362.904297,504.957031 L362.904297,499.455078 L364.811523,499.455078 Z M371.68457,499.358398 C374.119141,499.358398 375.71875,501.265625 375.71875,504.227539 C375.71875,507.180664 374.12793,509.09668 371.728516,509.09668 C370.357422,509.09668 369.276367,508.490234 368.705078,507.435547 L368.669922,507.435547 L368.669922,512.164062 L366.762695,512.164062 L366.762695,499.455078 L368.599609,499.455078 L368.599609,501.037109 L368.643555,501.037109 C369.179688,500.008789 370.357422,499.358398 371.68457,499.358398 Z M371.201172,507.479492 C372.748047,507.479492 373.767578,506.205078 373.767578,504.227539 C373.767578,502.258789 372.748047,500.975586 371.201172,500.975586 C369.689453,500.975586 368.661133,502.285156 368.652344,504.227539 C368.661133,506.178711 369.680664,507.479492 371.201172,507.479492 Z M382.161133,499.358398 C384.595703,499.358398 386.195312,501.265625 386.195312,504.227539 C386.195312,507.180664 384.604492,509.09668 382.205078,509.09668 C380.833984,509.09668 379.75293,508.490234 379.181641,507.435547 L379.146484,507.435547 L379.146484,512.164062 L377.239258,512.164062 L377.239258,499.455078 L379.076172,499.455078 L379.076172,501.037109 L379.120117,501.037109 C379.65625,500.008789 380.833984,499.358398 382.161133,499.358398 Z M381.677734,507.479492 C383.224609,507.479492 384.244141,506.205078 384.244141,504.227539 C384.244141,502.258789 383.224609,500.975586 381.677734,500.975586 C380.166016,500.975586 379.137695,502.285156 379.128906,504.227539 C379.137695,506.178711 380.157227,507.479492 381.677734,507.479492 Z M391.802734,509.114258 C389.042969,509.114258 387.285156,507.233398 387.285156,504.227539 C387.285156,501.230469 389.051758,499.332031 391.802734,499.332031 C394.553711,499.332031 396.311523,501.22168 396.311523,504.227539 C396.311523,507.233398 394.5625,509.114258 391.802734,509.114258 Z M391.802734,507.532227 C393.419922,507.532227 394.37793,506.310547 394.37793,504.227539 C394.37793,502.144531 393.419922,500.914062 391.802734,500.914062 C390.185547,500.914062 389.21875,502.15332 389.21875,504.227539 C389.21875,506.310547 390.185547,507.532227 391.802734,507.532227 Z M397.84082,509 L397.84082,499.455078 L399.660156,499.455078 L399.660156,501.063477 L399.695312,501.063477 C399.994141,500 400.873047,499.358398 401.998047,499.358398 C402.279297,499.358398 402.516602,499.384766 402.666016,499.419922 L402.666016,501.204102 C402.507812,501.142578 402.173828,501.089844 401.795898,501.089844 C400.539062,501.089844 399.748047,501.959961 399.748047,503.304688 L399.748047,509 L397.84082,509 Z M404.458984,497.310547 L406.357422,497.310547 L406.357422,499.455078 L408.185547,499.455078 L408.185547,500.958008 L406.357422,500.958008 L406.357422,506.292969 C406.357422,507.119141 406.726562,507.505859 407.526367,507.505859 C407.728516,507.505859 408.053711,507.479492 408.176758,507.461914 L408.176758,508.964844 C407.96582,509.017578 407.517578,509.061523 407.104492,509.061523 C405.197266,509.061523 404.458984,508.332031 404.458984,506.486328 L404.458984,500.958008 L403.140625,500.958008 L403.140625,499.455078 L404.458984,499.455078 L404.458984,497.310547 Z M414.513672,509 L414.513672,500.958008 L413.195312,500.958008 L413.195312,499.455078 L414.513672,499.455078 L414.513672,498.576172 C414.513672,496.791992 415.322266,496.009766 417.255859,496.009766 C417.598633,496.009766 417.915039,496.044922 418.222656,496.097656 L418.222656,497.547852 C418.029297,497.503906 417.765625,497.477539 417.510742,497.477539 C416.728516,497.477539 416.40332,497.820312 416.394531,498.637695 L416.394531,499.455078 L418.231445,499.455078 L418.231445,500.958008 L416.412109,500.958008 L416.412109,509 L414.513672,509 Z M423.891602,509.114258 C421.131836,509.114258 419.374023,507.233398 419.374023,504.227539 C419.374023,501.230469 421.140625,499.332031 423.891602,499.332031 C426.642578,499.332031 428.400391,501.22168 428.400391,504.227539 C428.400391,507.233398 426.651367,509.114258 423.891602,509.114258 Z M423.891602,507.532227 C425.508789,507.532227 426.466797,506.310547 426.466797,504.227539 C426.466797,502.144531 425.508789,500.914062 423.891602,500.914062 C422.274414,500.914062 421.307617,502.15332 421.307617,504.227539 C421.307617,506.310547 422.274414,507.532227 423.891602,507.532227 Z M429.929688,509 L429.929688,499.455078 L431.749023,499.455078 L431.749023,501.063477 L431.78418,501.063477 C432.083008,500 432.961914,499.358398 434.086914,499.358398 C434.368164,499.358398 434.605469,499.384766 434.754883,499.419922 L434.754883,501.204102 C434.59668,501.142578 434.262695,501.089844 433.884766,501.089844 C432.62793,501.089844 431.836914,501.959961 431.836914,503.304688 L431.836914,509 L429.929688,509 Z M442.234375,509 L440.318359,509 L440.318359,496.317383 L442.102539,496.317383 L448.676758,505.668945 L448.74707,505.668945 L448.74707,496.317383 L450.663086,496.317383 L450.663086,509 L448.887695,509 L442.313477,499.657227 L442.234375,499.657227 L442.234375,509 Z M456.894531,509.114258 C454.134766,509.114258 452.376953,507.233398 452.376953,504.227539 C452.376953,501.230469 454.143555,499.332031 456.894531,499.332031 C459.645508,499.332031 461.40332,501.22168 461.40332,504.227539 C461.40332,507.233398 459.654297,509.114258 456.894531,509.114258 Z M456.894531,507.532227 C458.511719,507.532227 459.469727,506.310547 459.469727,504.227539 C459.469727,502.144531 458.511719,500.914062 456.894531,500.914062 C455.277344,500.914062 454.310547,502.15332 454.310547,504.227539 C454.310547,506.310547 455.277344,507.532227 456.894531,507.532227 Z M466.527344,509.09668 C464.136719,509.09668 462.501953,507.171875 462.501953,504.21875 C462.501953,501.283203 464.136719,499.358398 466.509766,499.358398 C467.880859,499.358398 468.970703,499.982422 469.515625,501.037109 L469.55957,501.037109 L469.55957,495.746094 L471.458008,495.746094 L471.458008,509 L469.612305,509 L469.612305,507.382812 L469.577148,507.382812 C469.014648,508.463867 467.924805,509.09668 466.527344,509.09668 Z M467.010742,500.975586 C465.472656,500.975586 464.453125,502.258789 464.453125,504.227539 C464.453125,506.205078 465.463867,507.479492 467.010742,507.479492 C468.540039,507.479492 469.568359,506.178711 469.568359,504.227539 C469.568359,502.285156 468.540039,500.975586 467.010742,500.975586 Z M477.452148,500.887695 C476.081055,500.887695 475.087891,501.889648 474.982422,503.357422 L479.825195,503.357422 C479.78125,501.87207 478.84082,500.887695 477.452148,500.887695 Z M479.816406,506.205078 L481.635742,506.205078 C481.363281,507.918945 479.68457,509.114258 477.540039,509.114258 C474.771484,509.114258 473.048828,507.250977 473.048828,504.262695 C473.048828,501.274414 474.789062,499.332031 477.460938,499.332031 C480.080078,499.332031 481.732422,501.151367 481.732422,504.042969 L481.732422,504.710938 L474.973633,504.710938 L474.973633,504.825195 C474.973633,506.477539 476.010742,507.567383 477.575195,507.567383 C478.682617,507.567383 479.552734,507.040039 479.816406,506.205078 Z M484.650391,509.09668 C484.008789,509.09668 483.499023,508.586914 483.499023,507.945312 C483.499023,507.294922 484.008789,506.793945 484.650391,506.793945 C485.300781,506.793945 485.801758,507.294922 485.801758,507.945312 C485.801758,508.586914 485.300781,509.09668 484.650391,509.09668 Z M489.967773,499.455078 L489.967773,509.413086 C489.967773,511.355469 488.96582,512.269531 486.865234,512.269531 C486.786133,512.269531 486.487305,512.260742 486.443359,512.260742 L486.443359,510.749023 L486.71582,510.749023 C487.700195,510.749023 488.060547,510.379883 488.060547,509.404297 L488.060547,499.455078 L489.967773,499.455078 Z M489.018555,498.092773 C488.40332,498.092773 487.902344,497.600586 487.902344,496.994141 C487.902344,496.370117 488.40332,495.895508 489.018555,495.895508 C489.633789,495.895508 490.134766,496.370117 490.134766,496.994141 C490.134766,497.600586 489.633789,498.092773 489.018555,498.092773 Z M491.831055,502.170898 C491.831055,500.492188 493.333984,499.34082 495.53125,499.34082 C497.623047,499.34082 499.134766,500.518555 499.178711,502.179688 L497.385742,502.179688 C497.306641,501.335938 496.577148,500.808594 495.487305,500.808594 C494.40625,500.808594 493.685547,501.30957 493.685547,502.06543 C493.685547,502.645508 494.160156,503.041016 495.170898,503.287109 L496.75293,503.665039 C498.677734,504.130859 499.389648,504.825195 499.389648,506.231445 C499.389648,507.936523 497.772461,509.114258 495.460938,509.114258 C493.237305,509.114258 491.716797,507.962891 491.576172,506.240234 L493.457031,506.240234 C493.606445,507.154297 494.344727,507.655273 495.557617,507.655273 C496.744141,507.655273 497.491211,507.163086 497.491211,506.389648 C497.491211,505.783203 497.113281,505.466797 496.111328,505.211914 L494.40625,504.790039 C492.683594,504.368164 491.831055,503.489258 491.831055,502.170898 Z"/>
  </g>
</svg>
